<svg xmlns="http://www.w3.org/2000/svg" width="900" height="700" viewBox="0 0 900 700">
  <!-- Styles -->
  <defs>
    <style>
      /* Node styles */
      .node { stroke-width: 1.5; rx: 15; ry: 15; }
      .disorder-node { fill: #FFC3C3; stroke: #CC6F6F; }
      .symptom-node { fill: #C2F0C2; stroke: #6BB56B; }
      .behavior-node { fill: #C3D9FF; stroke: #6785C2; }
      .patient-node { fill: #FFF2C2; stroke: #D1B000; }
      .therapy-node { fill: #E9C2FF; stroke: #A64DFF; }
      
      /* Text styles */
      .node-text { font-family: 'Arial', sans-serif; font-size: 14px; font-weight: 500; text-anchor: middle; dominant-baseline: middle; }
      .title-text { font-family: 'Arial', sans-serif; font-size: 24px; font-weight: bold; text-anchor: middle; }
      .subtitle-text { font-family: 'Arial', sans-serif; font-size: 16px; font-style: italic; text-anchor: middle; }
      
      /* Line styles */
      .relationship { stroke: #666; stroke-width: 1.5; }
      .arrow { fill: #666; }
      .bidirectional { stroke-dasharray: 5,3; }
      .relationship-text { font-family: 'Arial', sans-serif; font-size: 11px; font-weight: bold; fill: #444; text-anchor: middle; }
      
      /* Figure caption */
      .figure-caption { font-family: 'Arial', sans-serif; font-size: 14px; font-weight: bold; text-anchor: middle; }
    </style>
    
    <!-- Arrow marker definitions -->
    <marker id="arrow" markerWidth="10" markerHeight="10" refX="9" refY="5" orient="auto" markerUnits="strokeWidth">
      <path d="M0,0 L0,10 L10,5 z" class="arrow"/>
    </marker>
    
    <!-- Bidirectional arrow markers -->
    <marker id="arrow-start" markerWidth="10" markerHeight="10" refX="1" refY="5" orient="auto" markerUnits="strokeWidth">
      <path d="M10,0 L10,10 L0,5 z" class="arrow"/>
    </marker>
  </defs>
  
  <!-- Title and Subtitle -->
  <text x="450" y="40" class="title-text">Knowledge Graph Schema for Therapeutic System</text>
  <text x="450" y="70" class="subtitle-text">Entity-Relationship Structure</text>
  
  <!-- Disorders Layer -->
  <rect x="135" y="120" width="180" height="50" class="node disorder-node" />
  <text x="225" y="145" class="node-text">Generalized Anxiety Disorder</text>
  
  <rect x="360" y="120" width="180" height="50" class="node disorder-node" />
  <text x="450" y="145" class="node-text">Major Depressive Disorder</text>
  
  <rect x="585" y="120" width="180" height="50" class="node disorder-node" />
  <text x="675" y="145" class="node-text">Bipolar Disorder</text>
  
  <!-- Therapy Nodes -->
  <rect x="135" y="220" width="180" height="50" class="node therapy-node" />
  <text x="225" y="245" class="node-text">CBT</text>
  
  <rect x="585" y="220" width="180" height="50" class="node therapy-node" />
  <text x="675" y="245" class="node-text">Reminiscence Therapy</text>
  
  <!-- Symptom Nodes -->
  <rect x="135" y="320" width="180" height="50" class="node symptom-node" />
  <text x="225" y="345" class="node-text">Persistent Sadness</text>
  
  <rect x="360" y="320" width="180" height="50" class="node symptom-node" />
  <text x="450" y="345" class="node-text">Excessive Worry</text>
  
  <rect x="135" y="420" width="180" height="50" class="node symptom-node" />
  <text x="225" y="445" class="node-text">Loss of Interest</text>
  
  <rect x="360" y="420" width="180" height="50" class="node symptom-node" />
  <text x="450" y="445" class="node-text">Mood Swings</text>
  
  <!-- Behavior Nodes -->
  <rect x="585" y="320" width="180" height="50" class="node behavior-node" />
  <text x="675" y="345" class="node-text">Social Withdrawal</text>
  
  <rect x="585" y="420" width="180" height="50" class="node behavior-node" />
  <text x="675" y="445" class="node-text">Restlessness</text>
  
  <rect x="135" y="520" width="180" height="50" class="node behavior-node" />
  <text x="225" y="545" class="node-text">Sleep Disturbance</text>
  
  <rect x="360" y="520" width="180" height="50" class="node behavior-node" />
  <text x="450" y="545" class="node-text">Impulsivity</text>
  
  <!-- Patient Node -->
  <rect x="360" y="620" width="180" height="50" class="node patient-node" />
  <text x="450" y="645" class="node-text">Patient</text>
  
  <!-- Relationships: Comorbid With -->
  <line x1="315" y1="145" x2="360" y2="145" class="relationship bidirectional" marker-end="url(#arrow)" marker-start="url(#arrow-start)" />
  <text x="337" y="135" class="relationship-text">COMORBID_WITH</text>
  
  <line x1="540" y1="145" x2="585" y2="145" class="relationship bidirectional" marker-end="url(#arrow)" marker-start="url(#arrow-start)" />
  <text x="562" y="135" class="relationship-text">COMORBID_WITH</text>
  
  <!-- Relationships: Treats -->
  <line x1="225" y1="220" x2="225" y2="170" class="relationship" marker-end="url(#arrow)" />
  <text x="245" y="195" class="relationship-text">TREATS</text>
  
  <line x1="360" y1="145" x2="240" y2="220" class="relationship" marker-end="url(#arrow)" />
  <text x="290" y="170" class="relationship-text">TREATS</text>
  
  <line x1="675" y1="220" x2="675" y2="170" class="relationship" marker-end="url(#arrow)" />
  <text x="695" y="195" class="relationship-text">TREATS</text>
  
  <line x1="640" y1="220" x2="540" y2="145" class="relationship" marker-end="url(#arrow)" />
  <text x="575" y="170" class="relationship-text">TREATS</text>
  
  <!-- Relationships: Exhibits -->
  <!-- Anxiety to Symptoms -->
  <line x1="225" y1="170" x2="225" y2="320" class="relationship" marker-end="url(#arrow)" />
  <text x="245" y="250" class="relationship-text">EXHIBITS</text>
  
  <line x1="225" y1="170" x2="390" y2="320" class="relationship" marker-end="url(#arrow)" />
  <text x="290" y="235" class="relationship-text">EXHIBITS</text>
  
  <!-- Depression to Symptoms -->
  <line x1="450" y1="170" x2="255" y2="320" class="relationship" marker-end="url(#arrow)" />
  <text x="335" y="235" class="relationship-text">EXHIBITS</text>
  
  <line x1="450" y1="170" x2="225" y2="420" class="relationship" marker-end="url(#arrow)" />
  <text x="315" y="290" class="relationship-text">EXHIBITS</text>
  
  <!-- Bipolar to Symptoms -->
  <line x1="675" y1="170" x2="510" y2="320" class="relationship" marker-end="url(#arrow)" />
  <text x="585" y="235" class="relationship-text">EXHIBITS</text>
  
  <line x1="675" y1="170" x2="450" y2="420" class="relationship" marker-end="url(#arrow)" />
  <text x="550" y="290" class="relationship-text">EXHIBITS</text>
  
  <!-- Relationships: Manifests As -->
  <line x1="225" y1="370" x2="595" y2="320" class="relationship" marker-end="url(#arrow)" />
  <text x="400" y="330" class="relationship-text">MANIFESTS_AS</text>
  
  <line x1="450" y1="370" x2="630" y2="420" class="relationship" marker-end="url(#arrow)" />
  <text x="545" y="380" class="relationship-text">MANIFESTS_AS</text>
  
  <line x1="225" y1="470" x2="190" y2="520" class="relationship" marker-end="url(#arrow)" />
  <text x="180" y="495" class="relationship-text">MANIFESTS_AS</text>
  
  <line x1="450" y1="470" x2="415" y2="520" class="relationship" marker-end="url(#arrow)" />
  <text x="405" y="495" class="relationship-text">MANIFESTS_AS</text>
  
  <!-- Relationships: Patient to Symptoms (Reports) -->
  <line x1="405" y1="620" x2="225" y2="370" class="relationship" marker-end="url(#arrow)" />
  <text x="290" y="490" class="relationship-text">REPORTS</text>
  
  <line x1="425" y1="620" x2="450" y2="470" class="relationship" marker-end="url(#arrow)" />
  <text x="465" y="550" class="relationship-text">REPORTS</text>
  
  <!-- Relationships: Patient to Behaviors (Displays) -->
  <line x1="485" y1="620" x2="675" y2="370" class="relationship" marker-end="url(#arrow)" />
  <text x="595" y="490" class="relationship-text">DISPLAYS</text>
  
  <line x1="450" y1="620" x2="225" y2="545" class="relationship" marker-end="url(#arrow)" />
  <text x="330" y="580" class="relationship-text">DISPLAYS</text>
  
  <!-- Relationships: Patient to Disorders (Diagnosed With) -->
  <line x1="360" y1="620" x2="180" y2="170" class="relationship" marker-end="url(#arrow)" />
  <text x="225" y="390" class="relationship-text">DIAGNOSED_WITH</text>
  
  <line x1="445" y1="620" x2="445" y2="170" class="relationship" marker-end="url(#arrow)" />
  <text x="470" y="390" class="relationship-text">DIAGNOSED_WITH</text>
  
  <line x1="540" y1="620" x2="675" y2="170" class="relationship" marker-end="url(#arrow)" />
  <text x="640" y="390" class="relationship-text">DIAGNOSED_WITH</text>
  
  <!-- Figure Caption -->
  <text x="450" y="685" class="figure-caption">Figure 2: Knowledge Graph Schema for Therapeutic System</text>
</svg>
